<?xml version="1.0" encoding="utf-8"?>
<!-- Generator: Adobe Illustrator 16.0.0, SVG Export Plug-In . SVG Version: 6.00 Build 0)  -->
<!DOCTYPE svg PUBLIC "-//W3C//DTD SVG 1.1//EN" "http://www.w3.org/Graphics/SVG/1.1/DTD/svg11.dtd">
<svg version="1.1" id="Layer_1" xmlns="http://www.w3.org/2000/svg" xmlns:xlink="http://www.w3.org/1999/xlink" x="0px" y="0px"
	 width="705.883px" height="643.529px" viewBox="0 0 705.883 643.529" enable-background="new 0 0 705.883 643.529"
	 xml:space="preserve">
<path fill="#AFB0FF" d="M2028.655-16.345c0,0-194.99,152.994-560.973,107.996c-109.203-13.427-228.597,72.461-252.7,179.813
	c-29.999,133.617,41.851,181.083,168.705,232.666c93.729,38.113,644.968,196.49,644.968,196.49"/>
<g>
	<g>
		<path fill="#AFB0FF" d="M225.638,287.443c13.115,130.406,213.3,360.773,347.655,347.262
			C707.651,621.191,725.3,368.918,712.184,238.512C699.07,108.106,579.52,13.342,445.166,26.856
			C310.805,40.369,212.523,157.037,225.638,287.443z"/>
	</g>
	<g opacity="0.8">
		<g>
			<path fill="#9640DD" d="M115.617,516.334c47.027,101.262,260.271,134.667,436.398,105.993
				c176.13-28.687,454.857-159.498,416.397-395.66C953.446,134.742,856.047-30.116,492.39,78.348
				C290.554,138.548,50.653,376.455,115.617,516.334z"/>
		</g>
	</g>
	<g opacity="0.8">
		<path fill="#AFB0FF" d="M21.256,190.738C7.19,381.809,307.921,613.76,482.3,626.596
			c174.381,12.837,377.089-182.053,391.154-373.124c14.065-191.068-49.982-325.87-318.146-199.955
			C393.758,129.371,35.321-0.33,21.256,190.738z"/>
	</g>
	<g>
		<path fill="#DA1866" d="M89.076,416.001c7.057-13.13-5.02-51.803-24.572-62.312c-19.549-10.508-39.167,11.129-46.224,24.259
			c-7.058,13.134,3.07,32.293,22.62,42.801C60.45,431.26,82.018,429.132,89.076,416.001z"/>
	</g>
	<g opacity="0.8">
		<path fill="#DA1866" d="M559.888,38.1c-17.553,32.701,20.5,133.219,75.271,162.617c54.768,29.411,105.505-23.471,123.051-56.161
			c17.549-32.701-12.617-83.036-67.386-112.434C636.056,2.725,577.436,5.411,559.888,38.1z"/>
	</g>
</g>
</svg>
