<?xml version="1.0" encoding="utf-8"?>
<!-- Generator: Adobe Illustrator 16.0.0, SVG Export Plug-In . SVG Version: 6.00 Build 0)  -->
<!DOCTYPE svg PUBLIC "-//W3C//DTD SVG 1.1//EN" "http://www.w3.org/Graphics/SVG/1.1/DTD/svg11.dtd">
<svg version="1.1" id="Layer_1" xmlns="http://www.w3.org/2000/svg" xmlns:xlink="http://www.w3.org/1999/xlink" x="0px" y="0px"
	 width="888.235px" height="775.036px" viewBox="0 0 888.235 775.036" enable-background="new 0 0 888.235 775.036"
	 xml:space="preserve">
<g opacity="0.1">
	<defs>
		<path id="SVGID_1_" opacity="0.1" d="M318.382,275.072c-64.374-26.268-48.645-140.41,16.152-165.829
			c46.983-18.432,66.023,5.004,107.006-22.654c24.827-16.754,69.472-91.159,135.138-75.722c22.124,5.2,51.206,0.621,82.501,65.865
			c30.52,63.632,83.441-0.111,122.94,39.473c96.71,96.923,21.313,115.751,25.352,160.154c2.367,26.036,52.146,44.615,53.012,91.141
			c0.402,21.748-13.174,50.036-40.381,57.995c-54.139,15.837-45.793-6.145-67.636,0c-53.907,15.16-5.05,61.62-79.75,67.056
			c-69.845,5.083-57.544-23.56-91.865-18.123c-47.261,7.486-32.065,29.484-86.766,39.872
			c-59.29,11.255-61.064-32.964-125.229-32.624c-41.976,0.225-89.844-21.747-83.786-62.523
			C295.245,350.645,440.531,324.91,318.382,275.072z"/>
	</defs>
	<use xlink:href="#SVGID_1_"  overflow="visible"/>
	<clipPath id="SVGID_2_">
		<use xlink:href="#SVGID_1_"  overflow="visible"/>
	</clipPath>
	<g clip-path="url(#SVGID_2_)">
		<rect x="232.235" y="-25" width="669" height="559"/>
	</g>
</g>
<g>
	<g>
		<defs>
			<path id="SVGID_3_" d="M338.617,267.072c-64.374-26.267-48.645-140.409,16.152-165.829
				c46.983-18.432,66.023,5.004,107.006-22.654c24.827-16.754,69.472-91.159,135.138-75.722c22.124,5.2,51.206,0.621,82.501,65.865
				c30.52,63.632,83.441-0.111,122.94,39.473c96.71,96.923,21.313,115.751,25.352,160.153c2.367,26.037,52.146,44.615,53.012,91.141
				c0.402,21.749-13.174,50.037-40.381,57.996c-54.139,15.837-45.793-6.145-67.636,0c-53.907,15.16-5.05,61.62-79.75,67.056
				c-69.845,5.083-57.544-23.56-91.865-18.123c-47.261,7.486-32.065,29.484-86.766,39.872
				c-59.29,11.255-61.064-32.964-125.229-32.624c-41.976,0.225-89.844-21.747-83.786-62.523
				C315.48,342.645,460.767,316.91,338.617,267.072z"/>
		</defs>
		<clipPath id="SVGID_4_">
			<use xlink:href="#SVGID_3_"  overflow="visible"/>
		</clipPath>
		<g clip-path="url(#SVGID_4_)">
			<rect x="217.235" y="431" fill="#E5F2F4" width="669" height="116"/>
			<rect x="254.235" y="-22" fill="#D2ECFF" width="669" height="441"/>
			<rect x="217.235" y="393" fill="#78D2D4" width="669" height="38"/>
			<path fill="#DDEEF2" d="M697.309,478.216c-30.1,0-54.503,9.784-54.503,17.784h109.006
				C751.812,488,727.409,478.216,697.309,478.216z"/>
			<path fill="#DDEEF2" d="M595.765,499.695c-12.363,0-22.387,3.305-22.387,7.305h44.771
				C618.148,503,608.126,499.695,595.765,499.695z"/>
			<path fill="#DDEEF2" d="M248.306,470.215c-30.101,0-54.501,8.785-54.501,17.785h109.007
				C302.812,479,278.408,470.215,248.306,470.215z"/>
			<path fill="#DDEEF2" d="M804.325,452.764c-19.017,0-34.432,7.236-34.432,11.236h68.864
				C838.758,460,823.341,452.764,804.325,452.764z"/>
			<path fill="#F3FAFF" d="M212.995,170.986c-20.215-5.79-15.275-30.955,5.073-36.56c14.753-4.063,20.732,1.104,33.603-4.994
				c7.796-3.693,21.815-20.096,42.437-16.693c6.947,1.145,16.081,0.137,25.907,14.52c9.585,14.028,26.204-0.024,38.606,8.702
				c30.37,21.369,6.693,25.521,7.962,35.31c0.743,5.74,16.374,9.835,16.645,20.093c0.128,4.794-4.137,11.031-12.679,12.785
				c-17,3.492-14.38-1.354-21.239,0c-16.929,3.343-1.585,13.585-25.044,14.784c-21.932,1.122-18.07-5.193-28.848-3.995
				c-14.84,1.65-10.069,6.5-27.248,8.791c-18.618,2.481-19.173-7.267-39.325-7.192c-13.182,0.05-28.212-4.794-26.311-13.785
				C205.729,187.647,251.352,181.975,212.995,170.986z"/>
			<ellipse fill="#F3FAFF" cx="429.181" cy="168.194" rx="19.717" ry="9.999"/>
			<path fill="#F3FAFF" d="M782.976,178.328c-17.929-5.135-13.548-27.45,4.495-32.42c13.085-3.603,18.386,0.979,29.798-4.427
				c6.914-3.275,19.345-17.822,37.631-14.804c6.161,1.018,14.259,0.122,22.974,12.876c8.499,12.44,23.236-0.021,34.235,7.716
				c26.929,18.949,5.935,22.629,7.059,31.311c0.66,5.091,14.522,8.722,14.762,17.817c0.112,4.252-3.67,9.783-11.244,11.337
				c-15.075,3.098-12.752-1.2-18.836,0c-15.008,2.964-1.402,12.047-22.207,13.112c-19.448,0.992-16.022-4.607-25.58-3.545
				c-13.16,1.464-8.93,5.765-24.161,7.796c-16.508,2.2-17.003-6.444-34.87-6.378c-11.689,0.044-25.02-4.251-23.335-12.223
				C776.531,193.102,816.987,188.071,782.976,178.328z"/>
			<ellipse fill="#F3FAFF" cx="758.666" cy="121.115" rx="26.336" ry="8.367"/>
			<linearGradient id="SVGID_5_" gradientUnits="userSpaceOnUse" x1="203.2354" y1="499.4927" x2="670.8516" y2="499.4927">
				<stop  offset="0" style="stop-color:#219F87"/>
				<stop  offset="0.2093" style="stop-color:#22A790"/>
				<stop  offset="0.557" style="stop-color:#26BBAA"/>
				<stop  offset="0.9986" style="stop-color:#2CDDD3"/>
			</linearGradient>
			<ellipse fill="url(#SVGID_5_)" cx="437.043" cy="499.492" rx="233.808" ry="106.651"/>
			<linearGradient id="SVGID_6_" gradientUnits="userSpaceOnUse" x1="424.2354" y1="428.4927" x2="891.8516" y2="428.4927">
				<stop  offset="0" style="stop-color:#219F87"/>
				<stop  offset="0.2093" style="stop-color:#22A790"/>
				<stop  offset="0.557" style="stop-color:#26BBAA"/>
				<stop  offset="0.9986" style="stop-color:#2CDDD3"/>
			</linearGradient>
			<ellipse fill="url(#SVGID_6_)" cx="658.043" cy="428.492" rx="233.808" ry="106.651"/>
		</g>
	</g>
</g>
<path fill="#FFDF47" d="M10.235,708.782c0,0,229.031-187.056,470.967-270.546c6.227-2.149,12.461-4.229,18.7-6.236
	c8.292-2.666-23.207-9.395-12.667-16.425c20.742-13.835,71.757-24.235,119.334-31.908c46.584-7.513,89.9-12.187,95.666-35.667
	c3.365-13.704-61.013-26-61.013-26s91.474,0.684,92.347,29.667c1.395,46.272-176.098,38.881-153,79c6.333,11,30.736-3.457,41,5.667
	c6,5.333-21.179,25.107-24.334,28.333c-114.886,117.457-185,308.369-185,308.369L10.235,708.782z"/>
<g>
	<g>
		<path fill="#B4E0F8" d="M445.53,276.811c-1.115-0.555-17.023-18.679-17.023-18.679l-4.375,2.88l16.245,19.768L445.53,276.811z"/>
		<polygon fill="#211854" points="424.132,261.012 422.961,262.036 440.221,283.201 445.983,278.495 445.53,276.791 
			440.533,280.223 		"/>
		<path fill="#FFFFFF" d="M428.78,265.55l-3.242-4.062l3.982-0.936c0,0,2.266,3.202,2.501,3.124L428.78,265.55z"/>
		<polygon fill="#FFFFFF" points="442.721,275.29 435.145,266.502 431.55,267.738 440.141,278.046 		"/>
	</g>
	<path fill="#FFE6E5" d="M525.727,198.754c0,15.125-7.576,27.384-16.926,27.384c-9.346,0-19.401-6.068-19.401-21.191
		s3.861-33.577,13.208-33.577C511.956,171.37,525.727,183.631,525.727,198.754z"/>
	<path fill="#1B479F" d="M489.015,179.03c0,0,5.296-11.907,15.677-11.636c3.664,0.096,12.878,3.976,18.347,14.021
		c4.96,9.108,3.58,22.812,1.942,31.29c-0.763,3.946-4.305,9.244-4.305,9.244s-0.629-5.447-1.83-10.23
		c-1.757-6.995-6.062-9.954-6.062-9.954s3.258-2.669,1.883-5.112c-1.954-3.467-6.387-0.269-6.387-0.269s-5.068-8.638-7.423-11.568
		C496.122,178.924,489.015,179.03,489.015,179.03z"/>
	<path fill="#0E3066" d="M518.846,181.966c0,0,4.541-14.448,12.385-21.192c4.603-3.955,22.385-7.549,26.973-3.577
		c9.561,8.276,1.688,37.484,3.853,58.896c1.534,15.171,14.311,25.596,14.311,25.596s-16.969-5.708-21.053-11.506
		c-6.74-9.57-12.15-47.906-21.054-50.279c-4.13-1.101-11.422,9.22-11.422,9.22L518.846,181.966z"/>
	<path fill="#FFE6E5" d="M446.165,450.223l7.257,4.207l-1.964,9.711c0,0-22.387,1.019-23.205-5.535
		c-0.227-1.822,5.96-2.014,8.771-3.28C442.337,452.93,446.165,450.223,446.165,450.223z"/>
	<path fill="#F1327E" d="M454.403,462.068c0,0-18.934,0.67-24.219-1.656c-2.07-0.911,1.725-3.735,1.725-3.735
		s-3.779-1.511-7.325,0.027c-2.301,0.999-4.895,4.84-4.969,5.909c-0.465,6.789,26.325,4.225,26.325,4.225l5.432,1.262
		L454.403,462.068z"/>
	<path fill="#211854" d="M489.399,306h11.007l-6.055,64.79c0,0-11.588,24.116-16.788,34.871c-2.25,4.657-1.317,18.774-6.191,28.858
		c-6.013,12.443-17.752,20.62-17.752,20.62l-11.283-3.312c0,0,12.865-15.093,15.962-38.536c3.853-29.173,7.604-67.084,10.46-76.077
		C475.314,316.558,489.399,306,489.399,306z"/>
	<path fill="#FFE6E5" d="M538.715,450.869l8.075,2.268l0.516,9.894c0,0-21.428,6.56-23.852,0.415
		c-0.675-1.709,5.27-3.434,7.679-5.361C535.681,454.443,538.715,450.869,538.715,450.869z"/>
	<path fill="#F1327E" d="M549.643,460.291c0,0-18.169,5.361-23.867,4.424c-2.231-0.367,0.737-4.047,0.737-4.047
		s-4.033-0.522-7.087,1.85c-1.979,1.541-3.534,5.906-3.34,6.961c1.238,6.689,26.547-2.462,26.547-2.462l5.575-0.13L549.643,460.291z
		"/>
	<path fill="#393669" d="M489.399,305.676l37.6-10.595c0,0,8.144,8.932,6.297,26.697c-1.701,16.375-13.447,41.29-12.485,50.089
		c1.078,9.877,12.697,20.411,18.361,36.539c7.114,20.261,8.435,45.595,8.435,45.595H536.46c0,0-36.24-62.769-40.869-80.561
		C490.368,353.376,489.399,305.676,489.399,305.676z"/>
	<path fill="#BBE2F7" d="M482.694,312.252l49.463-6.576c0,0,0.062-3.938-2.989-10.595c-1.856-4.048-8.398-13.5-8.807-19.816
		c-1.317-20.362,6.361-44.916-1.653-51.19c-6.356-4.977-23.473,7.572-28.347,15.465
		C481.741,253.499,482.694,312.252,482.694,312.252z"/>
	<g>
		<path fill="#FFE6E5" d="M450.864,273.441c-1.215-0.243-2.42-0.057-3.586-0.372c0.005,0.148-0.15,2.044-0.162,2.199
			c-0.146,3.006-0.479,3.88-1.017,6.866c1.18,0.213,2.368,0.396,3.588,0.571c0.26,0.031,0.534,0.066,0.795,0.104
			c0.031-0.219,0.048-0.474,0.071-0.739C450.737,279.764,450.753,275.861,450.864,273.441z"/>
		<path fill="#FFE6E5" d="M447.278,273.069c-2.626-0.346-7.205-2.085-8.829-3.454l-0.182-0.337
			c-4.239,2.453,3.058,6.165,5.319,5.635l0.021,0.07c-3.472,1.108-8.791,1.217-12.556,0.781l-0.012-0.056
			c-0.899,0.199-0.735,0.934-0.75,1.372c2.985,1.488,6.693,1.328,10.203,1.51l0.004,0.078c-2.701,0.669-11.148,0.179-10.548,1.723
			c-0.115,0.936,4.153,1.24,7.709,0.943c-1.408,0.543-2.952,0.362-4.345,0.915c-1.544,0.594-1.682,1.493-0.035,1.823
			c0.471,0.078,1.067,0.107,1.717,0.09l-0.002,0.392c0.986,1.26,3.223,0.642,4.451,0.25c1.316-0.445,2.417-1.13,3.658-1.664
			c0.706-0.346,1.696-0.513,2.258-1.083l0.008-0.042c0.247,0.042,0.49,0.083,0.731,0.117
			C446.638,279.148,447.135,276.076,447.278,273.069z"/>
		<path fill="#FFE6E5" d="M519.906,240.259c-0.622-2.336-11.96-5.162-14.13-3.922c-0.103,0.066-0.228,0.145-0.337,0.22
			c-0.1,0.07-0.187,0.146-0.285,0.229c-3.132,2.625-5.882,7.065-6.758,10.656c-1.733,5.184-1.307,11.857-4.264,17.022
			c-1.484,2.596-4.809,5.653-6.529,8.15c-3.064,0.619-4.345,1.38-7.487,1.747c-7.572,0.85-15.23,0.926-22.392,0.133
			c-2.344-0.254-4.64-0.605-6.86-1.055c-0.111,2.42-0.127,6.323-0.311,8.629c-0.023,0.265-0.04,0.52-0.071,0.739
			c2.025,0.273,4.077,0.489,6.162,0.666c0.244,0.024,0.484,0.045,0.731,0.066c1.102,0.08,2.207,0.152,3.315,0.215
			c0.031,0.004,0.065,0.005,0.095,0.007c0.088-0.002,0.166,0.005,0.24,0.007c6.674,0.347,13.554,0.189,20.343-0.563
			c4.103-0.453,16.854-2.456,19.037-3.614c2.392-2.324,7.688-6.47,9.877-10.314C515.995,259.269,519.095,250.896,519.906,240.259z"
			/>
	</g>
	<path fill="#CFE8F9" d="M497.655,249.12l19.815,4.678c0,0,8.531-29.172-3.716-30.962
		C506.131,221.722,497.655,249.12,497.655,249.12z"/>
	<path fill="#1B479F" d="M517.411,183.401c0,0,4.541-14.449,12.385-21.192c4.603-3.956,22.385-7.55,26.973-3.577
		c9.561,8.276,1.688,37.484,3.853,58.896c1.533,15.171,14.311,25.596,14.311,25.596s-16.969-5.708-21.053-11.507
		c-6.74-9.57-12.15-47.906-21.054-50.279c-4.131-1.101-11.422,9.22-11.422,9.22L517.411,183.401z"/>
	<ellipse fill="#F1327E" cx="522.043" cy="182.455" rx="4.71" ry="5.028"/>
</g>
</svg>
