<?xml version="1.0" encoding="utf-8"?>
<!-- Generator: Adobe Illustrator 16.0.0, SVG Export Plug-In . SVG Version: 6.00 Build 0)  -->
<!DOCTYPE svg PUBLIC "-//W3C//DTD SVG 1.1//EN" "http://www.w3.org/Graphics/SVG/1.1/DTD/svg11.dtd">
<svg version="1.1" id="Layer_1" xmlns="http://www.w3.org/2000/svg" xmlns:xlink="http://www.w3.org/1999/xlink" x="0px" y="0px"
	 width="888.234px" height="775.036px" viewBox="0 0 888.234 775.036" enable-background="new 0 0 888.234 775.036"
	 xml:space="preserve">
<g opacity="0.1" enable-background="new    ">
	<g>
		<path id="SVGID_1_" opacity="0.1" enable-background="new    " d="M318.382,275.072c-64.374-26.268-48.646-140.41,16.152-165.829
			c46.982-18.432,66.022,5.004,107.005-22.654c24.827-16.754,69.473-91.159,135.139-75.722c22.124,5.2,51.206,0.621,82.501,65.865
			c30.52,63.632,83.44-0.111,122.939,39.473c96.71,96.923,21.313,115.751,25.353,160.154c2.367,26.036,52.146,44.615,53.012,91.141
			c0.402,21.749-13.174,50.036-40.381,57.995c-54.139,15.838-45.793-6.145-67.636,0c-53.907,15.16-5.05,61.621-79.75,67.057
			c-69.846,5.082-57.544-23.561-91.865-18.123c-47.261,7.486-32.065,29.484-86.766,39.871
			c-59.29,11.256-61.064-32.963-125.229-32.623c-41.976,0.225-89.844-21.748-83.786-62.523
			C295.245,350.645,440.531,324.91,318.382,275.072z"/>
	</g>
	<g>
		<defs>
			<path id="SVGID_2_" d="M318.382,275.072c-64.374-26.268-48.646-140.41,16.152-165.829c46.982-18.432,66.022,5.004,107.005-22.654
				c24.827-16.754,69.473-91.159,135.139-75.722c22.124,5.2,51.206,0.621,82.501,65.865c30.52,63.632,83.44-0.111,122.939,39.473
				c96.71,96.923,21.313,115.751,25.353,160.154c2.367,26.036,52.146,44.615,53.012,91.141
				c0.402,21.749-13.174,50.036-40.381,57.995c-54.139,15.838-45.793-6.145-67.636,0c-53.907,15.16-5.05,61.621-79.75,67.057
				c-69.846,5.082-57.544-23.561-91.865-18.123c-47.261,7.486-32.065,29.484-86.766,39.871
				c-59.29,11.256-61.064-32.963-125.229-32.623c-41.976,0.225-89.844-21.748-83.786-62.523
				C295.245,350.645,440.531,324.91,318.382,275.072z"/>
		</defs>
		<clipPath id="SVGID_3_">
			<use xlink:href="#SVGID_2_"  overflow="visible"/>
		</clipPath>
		<g clip-path="url(#SVGID_3_)">
			<rect x="232.235" y="-25" width="669" height="559"/>
		</g>
	</g>
</g>
<path fill="#FFDF47" d="M10.235,708.782c0,0,229.031-187.057,470.967-270.545c6.228-2.15,12.461-4.23,18.7-6.236
	c8.292-2.666-23.207-9.395-12.667-16.426c20.742-13.834,71.757-24.234,119.334-31.908c46.584-7.513,89.9-12.187,95.666-35.667
	c3.365-13.704-61.013-26-61.013-26s91.474,0.684,92.347,29.667c1.396,46.273-176.098,38.88-153,79c6.333,11,30.736-3.457,41,5.668
	c6,5.332-21.179,25.107-24.334,28.332c-114.886,117.457-185,308.369-185,308.369L10.235,708.782z"/>
<g>
	<g>
		<g>
			<defs>
				<path id="SVGID_4_" d="M324.791,279.071c-64.374-26.266-48.646-140.408,16.151-165.828
					c46.983-18.432,66.023,5.004,107.006-22.654C472.776,73.834,517.42-0.57,583.086,14.867c22.124,5.2,51.206,0.621,82.501,65.865
					c30.521,63.632,83.441-0.111,122.94,39.473c96.71,96.923,21.312,115.751,25.352,160.153
					c2.367,26.037,52.146,44.615,53.013,91.141c0.401,21.75-13.174,50.037-40.381,57.996c-54.14,15.838-45.793-6.145-67.637,0
					c-53.906,15.16-5.05,61.621-79.75,67.057c-69.845,5.082-57.544-23.561-91.864-18.123c-47.262,7.486-32.065,29.484-86.767,39.871
					c-59.29,11.256-61.063-32.963-125.229-32.623c-41.976,0.225-89.844-21.748-83.786-62.523
					C301.654,354.645,446.941,328.911,324.791,279.071z"/>
			</defs>
			<clipPath id="SVGID_5_">
				<use xlink:href="#SVGID_4_"  overflow="visible"/>
			</clipPath>
			<g clip-path="url(#SVGID_5_)">
				<g id="_x35_xLL4n_3_">
					
						<image overflow="visible" width="1508" height="983" id="_x35_xLL4n_4_" xlink:href="4554CB0CEFE3A4AF.jpg"  transform="matrix(0.5959 0 0 0.5959 70.9832 26.2319)">
					</image>
				</g>
			</g>
		</g>
	</g>
</g>
</svg>
