<?xml version="1.0" encoding="utf-8"?>
<!-- Generator: Adobe Illustrator 16.0.0, SVG Export Plug-In . SVG Version: 6.00 Build 0)  -->
<!DOCTYPE svg PUBLIC "-//W3C//DTD SVG 1.1//EN" "http://www.w3.org/Graphics/SVG/1.1/DTD/svg11.dtd">
<svg version="1.1" id="Layer_1" xmlns="http://www.w3.org/2000/svg" xmlns:xlink="http://www.w3.org/1999/xlink" x="0px" y="0px"
	 width="158.25px" height="158.25px" viewBox="0 0 158.25 158.25" enable-background="new 0 0 158.25 158.25" xml:space="preserve">
<circle fill="#F0F5F9" cx="79.125" cy="79.125" r="76.764"/>
<g>
	<linearGradient id="SVGID_1_" gradientUnits="userSpaceOnUse" x1="31.7998" y1="79.125" x2="126.4502" y2="79.125">
		<stop  offset="0" style="stop-color:#6D4D9A"/>
		<stop  offset="0.1031" style="stop-color:#6D549E"/>
		<stop  offset="0.2745" style="stop-color:#6B65A6"/>
		<stop  offset="0.4932" style="stop-color:#6880B2"/>
		<stop  offset="0.7478" style="stop-color:#62A0BE"/>
		<stop  offset="0.9986" style="stop-color:#5EC0C2"/>
	</linearGradient>
	<path fill="url(#SVGID_1_)" d="M126.312,123.592l-15.089-36.426c-0.384-0.928-1.448-1.369-2.376-0.984s-1.369,1.449-0.984,2.375
		l13.64,32.932l-12.441-3.605c-0.817-0.236-1.689,0.125-2.099,0.869l-6.249,11.348L86.078,94.766
		c16.892-3.26,29.692-18.152,29.692-35.982c0-20.206-16.438-36.645-36.646-36.645c-20.205,0-36.645,16.438-36.645,36.645
		c0,8.185,2.697,15.751,7.25,21.857l-17.792,42.951c-0.268,0.646-0.142,1.387,0.325,1.91c0.467,0.52,1.19,0.729,1.861,0.533
		l14.679-4.254l7.372,13.387c0.321,0.584,0.933,0.943,1.593,0.943c0.033,0,0.067-0.002,0.101-0.004
		c0.698-0.039,1.312-0.473,1.58-1.119l14.098-34.035c0.384-0.93-0.057-1.992-0.984-2.377c-0.928-0.383-1.992,0.057-2.377,0.984
		L57.537,130.1l-6.248-11.348c-0.411-0.744-1.284-1.105-2.1-0.869l-12.442,3.605l15.616-37.699
		c6.691,7.158,16.213,11.639,26.762,11.639c1.09,0,2.166-0.049,3.231-0.143l16.445,39.703c0.269,0.646,0.882,1.08,1.581,1.119
		c0.033,0.002,0.065,0.004,0.1,0.004c0.66,0,1.271-0.359,1.593-0.943l7.371-13.387l14.68,4.254c0.672,0.195,1.396-0.014,1.861-0.533
		C126.453,124.979,126.579,124.238,126.312,123.592L126.312,123.592z M46.117,58.784c0-18.2,14.808-33.007,33.008-33.007
		c18.201,0,33.008,14.807,33.008,33.007c0,18.201-14.807,33.007-33.008,33.007C60.925,91.791,46.117,76.985,46.117,58.784z"/>
	<linearGradient id="SVGID_2_" gradientUnits="userSpaceOnUse" x1="58.0225" y1="56.8477" x2="100.2285" y2="56.8477">
		<stop  offset="0" style="stop-color:#6D4D9A"/>
		<stop  offset="0.1031" style="stop-color:#6D549E"/>
		<stop  offset="0.2745" style="stop-color:#6B65A6"/>
		<stop  offset="0.4932" style="stop-color:#6880B2"/>
		<stop  offset="0.7478" style="stop-color:#62A0BE"/>
		<stop  offset="0.9986" style="stop-color:#5EC0C2"/>
	</linearGradient>
	<path fill="url(#SVGID_2_)" d="M100.139,51.957c-0.209-0.646-0.76-1.12-1.428-1.232L86.473,48.67l-5.734-11.004
		c-0.313-0.602-0.936-0.979-1.613-0.979s-1.299,0.377-1.612,0.979L71.777,48.67l-12.238,2.054c-0.668,0.112-1.218,0.587-1.428,1.232
		c-0.209,0.645-0.043,1.353,0.432,1.835l8.693,8.855L65.408,74.92c-0.1,0.67,0.182,1.341,0.729,1.739
		c0.549,0.398,1.272,0.459,1.88,0.156l11.107-5.531l11.107,5.531c0.258,0.129,0.534,0.19,0.812,0.19
		c0.377,0,0.752-0.117,1.068-0.347c0.549-0.398,0.83-1.069,0.73-1.739l-1.828-12.273l8.692-8.855
		C100.183,53.309,100.349,52.601,100.139,51.957z M87.784,60.745c-0.399,0.408-0.585,0.979-0.501,1.543l1.447,9.717l-8.794-4.38
		c-0.256-0.127-0.534-0.19-0.812-0.19s-0.555,0.063-0.811,0.19l-8.795,4.38l1.448-9.717c0.085-0.564-0.103-1.135-0.501-1.543
		l-6.883-7.011l9.688-1.626c0.562-0.095,1.048-0.447,1.312-0.953l4.54-8.713l4.541,8.713c0.264,0.506,0.749,0.858,1.312,0.953
		l9.69,1.626L87.784,60.745L87.784,60.745z"/>
	<linearGradient id="SVGID_3_" gradientUnits="userSpaceOnUse" x1="49.7549" y1="58.7842" x2="108.2559" y2="58.7842">
		<stop  offset="0" style="stop-color:#6D4D9A"/>
		<stop  offset="0.1031" style="stop-color:#6D549E"/>
		<stop  offset="0.2745" style="stop-color:#6B65A6"/>
		<stop  offset="0.4932" style="stop-color:#6880B2"/>
		<stop  offset="0.7478" style="stop-color:#62A0BE"/>
		<stop  offset="0.9986" style="stop-color:#5EC0C2"/>
	</linearGradient>
	<path fill="url(#SVGID_3_)" d="M106.676,60.619c-0.996-0.134-1.91,0.567-2.043,1.563c-1.686,12.732-12.652,22.335-25.508,22.335
		c-14.188,0-25.732-11.544-25.732-25.734S64.937,33.05,79.125,33.05c12.855,0,23.822,9.603,25.508,22.335
		c0.133,0.996,1.048,1.697,2.043,1.564c0.995-0.132,1.695-1.046,1.562-2.042c-1.925-14.534-14.441-25.494-29.113-25.494
		c-16.194,0-29.37,13.175-29.37,29.37s13.176,29.371,29.37,29.371c14.672,0,27.188-10.96,29.115-25.495
		C108.371,61.665,107.672,60.75,106.676,60.619z"/>
</g>
</svg>
