<?xml version="1.0" encoding="utf-8"?>
<!-- Generator: Adobe Illustrator 16.0.0, SVG Export Plug-In . SVG Version: 6.00 Build 0)  -->
<!DOCTYPE svg PUBLIC "-//W3C//DTD SVG 1.1//EN" "http://www.w3.org/Graphics/SVG/1.1/DTD/svg11.dtd">
<svg version="1.1" id="Layer_1" xmlns="http://www.w3.org/2000/svg" xmlns:xlink="http://www.w3.org/1999/xlink" x="0px" y="0px"
	 width="158.25px" height="158.25px" viewBox="0 0 158.25 158.25" enable-background="new 0 0 158.25 158.25" xml:space="preserve">
<circle fill="#F0F5F9" cx="79.125" cy="79.125" r="76.764"/>
<g>
	<linearGradient id="SVGID_1_" gradientUnits="userSpaceOnUse" x1="31.4043" y1="88.7715" x2="105.6723" y2="88.7715">
		<stop  offset="0" style="stop-color:#6D4D9A"/>
		<stop  offset="0.1031" style="stop-color:#6D549E"/>
		<stop  offset="0.2745" style="stop-color:#6B65A6"/>
		<stop  offset="0.4932" style="stop-color:#6880B2"/>
		<stop  offset="0.7478" style="stop-color:#62A0BE"/>
		<stop  offset="0.9986" style="stop-color:#5EC0C2"/>
	</linearGradient>
	<path fill="url(#SVGID_1_)" d="M104.858,87.295c4.282-5.645,6.544-12.382,6.544-19.484c0-8.707-3.415-16.871-9.616-22.985
		c-6.2-6.112-14.419-9.414-23.128-9.289c-8.439,0.12-16.391,3.506-22.389,9.537c-5.998,6.029-9.344,13.998-9.42,22.438
		c-0.066,7.237,2.211,14.094,6.581,19.835c7.097,9.318,11.005,20.733,11.005,32.141v12.482c0,5.537,4.504,10.041,10.041,10.041h9.34
		c5.536,0,10.041-4.504,10.041-10.041v-12.48C93.857,107.954,97.635,96.822,104.858,87.295z M56.723,84.84
		c-3.809-5.002-5.793-10.981-5.735-17.29c0.138-15.155,12.577-27.66,27.73-27.875c7.601-0.103,14.757,2.769,20.163,8.099
		c5.405,5.33,8.383,12.446,8.383,20.037c0,6.192-1.972,12.065-5.701,16.983c-7.613,10.039-11.712,21.75-11.879,33.916H68.567
		C68.395,106.661,64.203,94.663,56.723,84.84z M68.574,130.567v-1.676l21.145,2.422v0.656c0,0.344-0.035,0.68-0.092,1.01
		L68.574,130.567z M68.574,124.726v-1.877h21.145v4.301L68.574,124.726z M74.477,137.872c-2.224,0-4.162-1.236-5.168-3.056
		l17.814,2.042c-0.945,0.64-2.083,1.014-3.307,1.014H74.477L74.477,137.872z"/>
	<linearGradient id="SVGID_2_" gradientUnits="userSpaceOnUse" x1="31.4082" y1="69.4141" x2="105.6664" y2="69.4141">
		<stop  offset="0" style="stop-color:#6D4D9A"/>
		<stop  offset="0.1031" style="stop-color:#6D549E"/>
		<stop  offset="0.2745" style="stop-color:#6B65A6"/>
		<stop  offset="0.4932" style="stop-color:#6880B2"/>
		<stop  offset="0.7478" style="stop-color:#62A0BE"/>
		<stop  offset="0.9986" style="stop-color:#5EC0C2"/>
	</linearGradient>
	<path fill="url(#SVGID_2_)" d="M58.664,70.924c-0.161-1.083-0.238-2.195-0.229-3.307c0.011-1.143-0.906-2.077-2.05-2.088
		c-1.136-0.01-2.077,0.907-2.087,2.051c-0.013,1.326,0.079,2.656,0.272,3.954c0.153,1.026,1.036,1.765,2.044,1.765
		c0.102,0,0.204-0.009,0.307-0.024C58.053,73.106,58.833,72.055,58.664,70.924L58.664,70.924z"/>
	<linearGradient id="SVGID_3_" gradientUnits="userSpaceOnUse" x1="31.4043" y1="89.2529" x2="105.6732" y2="89.2529">
		<stop  offset="0" style="stop-color:#6D4D9A"/>
		<stop  offset="0.1031" style="stop-color:#6D549E"/>
		<stop  offset="0.2745" style="stop-color:#6B65A6"/>
		<stop  offset="0.4932" style="stop-color:#6880B2"/>
		<stop  offset="0.7478" style="stop-color:#62A0BE"/>
		<stop  offset="0.9986" style="stop-color:#5EC0C2"/>
	</linearGradient>
	<path fill="url(#SVGID_3_)" d="M70.841,102.354c0.214,0,0.433-0.034,0.646-0.105c1.087-0.356,1.677-1.525,1.319-2.611
		c-2.293-6.974-5.711-13.471-10.158-19.311c-0.734-0.967-1.386-1.993-1.936-3.057c-0.524-1.016-1.773-1.412-2.788-0.889
		c-1.015,0.524-1.413,1.773-0.888,2.788c0.658,1.275,1.439,2.509,2.319,3.664c4.167,5.472,7.37,11.56,9.519,18.097
		C69.162,101.801,69.971,102.354,70.841,102.354L70.841,102.354z"/>
	<linearGradient id="SVGID_4_" gradientUnits="userSpaceOnUse" x1="31.4033" y1="79.1699" x2="105.6729" y2="79.1699">
		<stop  offset="0" style="stop-color:#6D4D9A"/>
		<stop  offset="0.1031" style="stop-color:#6D549E"/>
		<stop  offset="0.2745" style="stop-color:#6B65A6"/>
		<stop  offset="0.4932" style="stop-color:#6880B2"/>
		<stop  offset="0.7478" style="stop-color:#62A0BE"/>
		<stop  offset="0.9986" style="stop-color:#5EC0C2"/>
	</linearGradient>
	<path fill="url(#SVGID_4_)" d="M100.866,74.896c-1.049-0.451-2.267,0.032-2.718,1.082c-0.656,1.522-1.505,2.974-2.521,4.316
		c-0.691,0.91-0.513,2.208,0.398,2.899c0.373,0.284,0.812,0.42,1.248,0.42c0.625,0,1.244-0.281,1.65-0.818
		c1.219-1.607,2.236-3.351,3.024-5.18C102.4,76.565,101.917,75.348,100.866,74.896L100.866,74.896z"/>
	<linearGradient id="SVGID_5_" gradientUnits="userSpaceOnUse" x1="31.4033" y1="57.4976" x2="105.6726" y2="57.4976">
		<stop  offset="0" style="stop-color:#6D4D9A"/>
		<stop  offset="0.1031" style="stop-color:#6D549E"/>
		<stop  offset="0.2745" style="stop-color:#6B65A6"/>
		<stop  offset="0.4932" style="stop-color:#6880B2"/>
		<stop  offset="0.7478" style="stop-color:#62A0BE"/>
		<stop  offset="0.9986" style="stop-color:#5EC0C2"/>
	</linearGradient>
	<path fill="url(#SVGID_5_)" d="M79.126,47.121c11.407,0,20.69,9.282,20.69,20.689c0,0.648-0.029,1.304-0.09,1.943
		c-0.104,1.139,0.733,2.145,1.871,2.25c0.064,0.005,0.129,0.009,0.191,0.009c1.059,0,1.959-0.807,2.059-1.881
		c0.07-0.765,0.105-1.546,0.105-2.321c0-13.69-11.137-24.828-24.827-24.828c-1.144,0-2.07,0.927-2.07,2.07
		C77.056,46.194,77.982,47.121,79.126,47.121L79.126,47.121z"/>
	<linearGradient id="SVGID_6_" gradientUnits="userSpaceOnUse" x1="31.3994" y1="24.1016" x2="105.674" y2="24.1016">
		<stop  offset="0" style="stop-color:#6D4D9A"/>
		<stop  offset="0.1031" style="stop-color:#6D549E"/>
		<stop  offset="0.2745" style="stop-color:#6B65A6"/>
		<stop  offset="0.4932" style="stop-color:#6880B2"/>
		<stop  offset="0.7478" style="stop-color:#62A0BE"/>
		<stop  offset="0.9986" style="stop-color:#5EC0C2"/>
	</linearGradient>
	<path fill="url(#SVGID_6_)" d="M79.126,31.964c1.142,0,2.068-0.927,2.068-2.068V18.308c0-1.143-0.927-2.068-2.068-2.068
		c-1.144,0-2.07,0.926-2.07,2.068v11.588C77.056,31.037,77.982,31.964,79.126,31.964z"/>
	<linearGradient id="SVGID_7_" gradientUnits="userSpaceOnUse" x1="31.4043" y1="30.0034" x2="105.6714" y2="30.0034">
		<stop  offset="0" style="stop-color:#6D4D9A"/>
		<stop  offset="0.1031" style="stop-color:#6D549E"/>
		<stop  offset="0.2745" style="stop-color:#6B65A6"/>
		<stop  offset="0.4932" style="stop-color:#6880B2"/>
		<stop  offset="0.7478" style="stop-color:#62A0BE"/>
		<stop  offset="0.9986" style="stop-color:#5EC0C2"/>
	</linearGradient>
	<path fill="url(#SVGID_7_)" d="M58.191,36.053c0.385,0.664,1.08,1.036,1.795,1.036c0.351,0,0.707-0.09,1.032-0.278
		c0.99-0.571,1.329-1.837,0.757-2.826l-5.789-10.032c-0.572-0.989-1.838-1.328-2.828-0.757c-0.988,0.571-1.328,1.836-0.757,2.826
		L58.191,36.053z"/>
	<linearGradient id="SVGID_8_" gradientUnits="userSpaceOnUse" x1="31.4014" y1="90.208" x2="105.6728" y2="90.208">
		<stop  offset="0" style="stop-color:#6D4D9A"/>
		<stop  offset="0.1031" style="stop-color:#6D549E"/>
		<stop  offset="0.2745" style="stop-color:#6B65A6"/>
		<stop  offset="0.4932" style="stop-color:#6880B2"/>
		<stop  offset="0.7478" style="stop-color:#62A0BE"/>
		<stop  offset="0.9986" style="stop-color:#5EC0C2"/>
	</linearGradient>
	<path fill="url(#SVGID_8_)" d="M123.344,91.312l-10.031-5.79c-0.988-0.572-2.255-0.231-2.826,0.757
		c-0.571,0.99-0.232,2.256,0.758,2.826l10.031,5.791c0.326,0.189,0.682,0.277,1.033,0.277c0.715,0,1.41-0.372,1.794-1.035
		C124.673,93.149,124.334,91.883,123.344,91.312z"/>
	<linearGradient id="SVGID_9_" gradientUnits="userSpaceOnUse" x1="31.4023" y1="46.1357" x2="105.6743" y2="46.1357">
		<stop  offset="0" style="stop-color:#6D4D9A"/>
		<stop  offset="0.1031" style="stop-color:#6D549E"/>
		<stop  offset="0.2745" style="stop-color:#6B65A6"/>
		<stop  offset="0.4932" style="stop-color:#6880B2"/>
		<stop  offset="0.7478" style="stop-color:#62A0BE"/>
		<stop  offset="0.9986" style="stop-color:#5EC0C2"/>
	</linearGradient>
	<path fill="url(#SVGID_9_)" d="M34.906,45.033l10.031,5.79c0.325,0.188,0.682,0.277,1.033,0.277c0.714,0,1.41-0.371,1.793-1.035
		c0.571-0.989,0.232-2.255-0.758-2.826l-10.031-5.79c-0.989-0.573-2.255-0.234-2.826,0.756
		C33.576,43.195,33.916,44.46,34.906,45.033z"/>
	<linearGradient id="SVGID_10_" gradientUnits="userSpaceOnUse" x1="31.4043" y1="68.1724" x2="105.673" y2="68.1724">
		<stop  offset="0" style="stop-color:#6D4D9A"/>
		<stop  offset="0.1031" style="stop-color:#6D549E"/>
		<stop  offset="0.2745" style="stop-color:#6B65A6"/>
		<stop  offset="0.4932" style="stop-color:#6880B2"/>
		<stop  offset="0.7478" style="stop-color:#62A0BE"/>
		<stop  offset="0.9986" style="stop-color:#5EC0C2"/>
	</linearGradient>
	<path fill="url(#SVGID_10_)" d="M128.99,66.104h-11.588c-1.144,0-2.069,0.925-2.069,2.069c0,1.143,0.926,2.068,2.069,2.068h11.588
		c1.142,0,2.068-0.926,2.068-2.068C131.059,67.028,130.132,66.104,128.99,66.104z"/>
	<linearGradient id="SVGID_11_" gradientUnits="userSpaceOnUse" x1="31.4033" y1="68.1724" x2="105.6767" y2="68.1724">
		<stop  offset="0" style="stop-color:#6D4D9A"/>
		<stop  offset="0.1031" style="stop-color:#6D549E"/>
		<stop  offset="0.2745" style="stop-color:#6B65A6"/>
		<stop  offset="0.4932" style="stop-color:#6880B2"/>
		<stop  offset="0.7478" style="stop-color:#62A0BE"/>
		<stop  offset="0.9986" style="stop-color:#5EC0C2"/>
	</linearGradient>
	<path fill="url(#SVGID_11_)" d="M42.918,68.173c0-1.145-0.927-2.069-2.07-2.069H29.262c-1.143,0-2.07,0.925-2.07,2.069
		c0,1.143,0.928,2.068,2.07,2.068h11.586C41.991,70.241,42.918,69.315,42.918,68.173z"/>
	<linearGradient id="SVGID_12_" gradientUnits="userSpaceOnUse" x1="31.4004" y1="46.1357" x2="105.6724" y2="46.1357">
		<stop  offset="0" style="stop-color:#6D4D9A"/>
		<stop  offset="0.1031" style="stop-color:#6D549E"/>
		<stop  offset="0.2745" style="stop-color:#6B65A6"/>
		<stop  offset="0.4932" style="stop-color:#6880B2"/>
		<stop  offset="0.7478" style="stop-color:#62A0BE"/>
		<stop  offset="0.9986" style="stop-color:#5EC0C2"/>
	</linearGradient>
	<path fill="url(#SVGID_12_)" d="M112.28,51.101c0.352,0,0.706-0.09,1.032-0.277l10.031-5.79c0.99-0.572,1.329-1.838,0.759-2.828
		c-0.572-0.989-1.837-1.328-2.827-0.756l-10.031,5.79c-0.99,0.571-1.329,1.837-0.758,2.826
		C110.87,50.729,111.566,51.101,112.28,51.101z"/>
	<linearGradient id="SVGID_13_" gradientUnits="userSpaceOnUse" x1="31.4043" y1="90.208" x2="105.6717" y2="90.208">
		<stop  offset="0" style="stop-color:#6D4D9A"/>
		<stop  offset="0.1031" style="stop-color:#6D549E"/>
		<stop  offset="0.2745" style="stop-color:#6B65A6"/>
		<stop  offset="0.4932" style="stop-color:#6880B2"/>
		<stop  offset="0.7478" style="stop-color:#62A0BE"/>
		<stop  offset="0.9986" style="stop-color:#5EC0C2"/>
	</linearGradient>
	<path fill="url(#SVGID_13_)" d="M44.938,85.521l-10.031,5.79c-0.989,0.571-1.33,1.838-0.758,2.826
		c0.383,0.663,1.078,1.035,1.793,1.035c0.352,0,0.708-0.088,1.033-0.277l10.031-5.791c0.99-0.57,1.329-1.836,0.758-2.826
		C47.192,85.29,45.927,84.949,44.938,85.521z"/>
	<linearGradient id="SVGID_14_" gradientUnits="userSpaceOnUse" x1="31.4053" y1="30.0034" x2="105.6732" y2="30.0034">
		<stop  offset="0" style="stop-color:#6D4D9A"/>
		<stop  offset="0.1031" style="stop-color:#6D549E"/>
		<stop  offset="0.2745" style="stop-color:#6B65A6"/>
		<stop  offset="0.4932" style="stop-color:#6880B2"/>
		<stop  offset="0.7478" style="stop-color:#62A0BE"/>
		<stop  offset="0.9986" style="stop-color:#5EC0C2"/>
	</linearGradient>
	<path fill="url(#SVGID_14_)" d="M97.232,36.811c0.325,0.188,0.682,0.278,1.033,0.278c0.715,0,1.408-0.372,1.793-1.036l5.791-10.031
		c0.571-0.99,0.232-2.255-0.758-2.826c-0.989-0.571-2.256-0.232-2.826,0.757l-5.79,10.032
		C95.902,34.974,96.242,36.239,97.232,36.811L97.232,36.811z"/>
</g>
</svg>
