<?xml version="1.0" encoding="utf-8"?>
<!-- Generator: Adobe Illustrator 16.0.0, SVG Export Plug-In . SVG Version: 6.00 Build 0)  -->
<!DOCTYPE svg PUBLIC "-//W3C//DTD SVG 1.1//EN" "http://www.w3.org/Graphics/SVG/1.1/DTD/svg11.dtd">
<svg version="1.1" id="Layer_1" xmlns="http://www.w3.org/2000/svg" xmlns:xlink="http://www.w3.org/1999/xlink" x="0px" y="0px"
	 width="158.25px" height="158.25px" viewBox="0 0 158.25 158.25" enable-background="new 0 0 158.25 158.25" xml:space="preserve">
<g>
	<circle fill="#F0F5F9" cx="79.447" cy="79.125" r="76.764"/>
	<g>
		<g>
			<linearGradient id="SVGID_1_" gradientUnits="userSpaceOnUse" x1="11.873" y1="81.1562" x2="147.0723" y2="81.1562">
				<stop  offset="0" style="stop-color:#6D4D9A"/>
				<stop  offset="0.1031" style="stop-color:#6D549E"/>
				<stop  offset="0.2745" style="stop-color:#6B65A6"/>
				<stop  offset="0.4932" style="stop-color:#6880B2"/>
				<stop  offset="0.7478" style="stop-color:#62A0BE"/>
				<stop  offset="0.9986" style="stop-color:#5EC0C2"/>
			</linearGradient>
			<path fill="url(#SVGID_1_)" d="M142.465,108.822l-8.02-4.01c-0.045-0.023-0.074-0.07-0.074-0.121v-4.031
				c3.293-2.268,5.623-5.852,6.205-10.057c1.48-2.561,2.262-5.449,2.262-8.389c0-5.481-2.639-10.356-6.711-13.424
				c0.236-0.794,0.361-1.614,0.361-2.452c0-5.177-4.688-9.389-10.449-9.389c-5.76,0-10.445,4.212-10.445,9.389
				c0,0.838,0.121,1.658,0.359,2.453c-2.428,1.83-4.342,4.304-5.496,7.164c-0.49-4.825-1.002-10.527-1.492-17.17
				c-0.646-8.765-3.799-16.167-9.115-21.405c-5.275-5.199-12.322-7.947-20.377-7.947s-15.102,2.748-20.377,7.947
				c-5.316,5.238-8.469,12.64-9.115,21.405c-0.172,2.327-0.346,4.532-0.521,6.632H30.787c-6.928,0-12.562,5.636-12.562,12.564v0.118
				c0,1.613,0.381,3.229,1.102,4.673l1.014,2.027v3.232c0,5.125,2.525,9.723,6.352,12.49v2.861c0,0.365-0.248,0.691-0.6,0.793
				l-8.178,2.336c-3.555,1.018-6.041,4.311-6.041,8.01v16.377c0,1.094,0.887,1.98,1.98,1.98s1.98-0.887,1.98-1.98v-16.377
				c0-1.939,1.305-3.668,3.17-4.201l8.176-2.336c0.295-0.084,0.576-0.199,0.842-0.334l5.02,5.018v18.23
				c0,1.094,0.887,1.98,1.98,1.98s1.98-0.887,1.98-1.98v-18.23l5.055-5.053c0.674,0.33,1.348,0.523,1.842,0.664l2.006,0.574
				c-2.721,1.934-4.396,5.088-4.396,8.512v13.533c0,1.094,0.887,1.98,1.98,1.98s1.98-0.887,1.98-1.98v-13.533
				c0-2.568,1.518-4.896,3.865-5.934l11.322-5.002c3.549,7.105,10.801,11.633,18.816,11.633c8.047,0,15.271-4.518,18.818-11.631
				l11.318,5c2.35,1.037,3.867,3.365,3.867,5.934v13.533c0,1.094,0.887,1.98,1.98,1.98s1.98-0.887,1.98-1.98v-13.533
				c0-2.535-0.92-4.92-2.5-6.775l3.064-1.533l2.301,2.188c1.609,1.527,3.672,2.293,5.736,2.293c2.066,0,4.131-0.766,5.74-2.293
				l2.299-2.188l6.617,3.309c1.488,0.744,2.416,2.242,2.416,3.908v14.625c0,1.094,0.885,1.98,1.979,1.98
				c1.096,0,1.982-0.887,1.982-1.98v-14.625C147.07,113.098,145.307,110.242,142.465,108.822z M126.039,60.91
				c3.578,0,6.488,2.436,6.488,5.429c0,0.125-0.01,0.25-0.021,0.374c-1.992-0.834-4.176-1.296-6.467-1.296
				c-2.289,0-4.475,0.462-6.465,1.296c-0.01-0.124-0.02-0.249-0.02-0.374C119.555,63.346,122.465,60.91,126.039,60.91z
				 M35.021,109.047l-4.514-4.512c0.094-0.371,0.145-0.76,0.145-1.152v-0.836c1.244,0.408,2.559,0.65,3.918,0.691
				c0.154,0.006,0.305,0.008,0.457,0.008c1.502,0,2.969-0.227,4.363-0.66v0.795c0,0.43,0.045,0.82,0.121,1.176L35.021,109.047z
				 M34.691,99.279c-5.73-0.172-10.391-5.217-10.391-11.248V84.33c0-0.307-0.07-0.609-0.209-0.885L22.869,81
				c-0.447-0.897-0.686-1.899-0.686-2.901v-0.118c0-4.744,3.861-8.604,8.604-8.604h17.07v8.222c0,1.328-0.312,2.659-0.908,3.848
				l-1,1.998c-0.137,0.275-0.209,0.578-0.209,0.885v4.234c0,2.924-1.154,5.656-3.256,7.693
				C40.389,98.295,37.617,99.367,34.691,99.279z M51.242,106.26l-6.256-1.789c-1.635-0.467-1.635-0.648-1.635-1.088v-2.73
				c0.664-0.461,1.299-0.977,1.895-1.553c0.396-0.387,0.77-0.795,1.119-1.217c0.316,0.645,0.805,1.209,1.436,1.617
				c1.588,1.027,4.584,2.736,8.988,4.309L51.242,106.26z M79.473,114.102c-6.443,0-12.279-3.602-15.189-9.273l2.881-1.273
				c2.25-0.992,3.705-3.225,3.705-5.684v-4.752c2.662,1.07,5.564,1.66,8.604,1.66c3.037,0,5.941-0.59,8.602-1.66v4.752
				c0,2.459,1.455,4.691,3.705,5.684l2.881,1.273C91.754,110.506,85.939,114.102,79.473,114.102z M96.645,101.375l-3.266-1.443
				c-0.816-0.361-1.344-1.168-1.344-2.061v-6.809c6.365-4.129,10.584-11.297,10.584-19.433v-3.713c0-2.413-1.025-4.689-2.814-6.246
				c-3.979-3.46-12.986-9.5-28.604-11.061c-1.084-0.109-2.057,0.684-2.168,1.773c-0.107,1.089,0.688,2.059,1.775,2.167
				c14.523,1.453,22.773,6.958,26.398,10.109c0.922,0.804,1.451,1.991,1.451,3.257v3.713c0,10.581-8.605,19.188-19.186,19.188
				S60.285,82.211,60.285,71.63v-1.656c0-0.761,0.422-1.458,1.129-1.865c2.477-1.426,5.742-4.067,7.236-8.553
				c0.346-1.037-0.215-2.159-1.252-2.505s-2.158,0.215-2.504,1.252c-1.104,3.305-3.576,5.29-5.457,6.373
				c-1.92,1.105-3.113,3.135-3.113,5.298v1.656c0,8.136,4.219,15.303,10.584,19.432v6.809c0,0.893-0.527,1.701-1.342,2.061
				l-3.268,1.443c-6.377-1.707-10.465-3.982-12.346-5.199c-0.037-0.025-0.059-0.053-0.049-0.115
				c0.691-4.082,2.467-15.862,4.025-36.985c0.576-7.793,3.322-14.321,7.947-18.876c4.518-4.452,10.602-6.807,17.596-6.807
				c6.992,0,13.076,2.355,17.596,6.807c4.623,4.555,7.371,11.083,7.947,18.876c1.557,21.123,3.334,32.901,4.023,36.985
				c0.012,0.062-0.01,0.09-0.047,0.115C107.109,97.395,103.021,99.668,96.645,101.375z M117.709,104.689
				c0,0.053-0.027,0.1-0.076,0.123l-6.203,3.102c-0.074-0.033-0.145-0.072-0.219-0.105l-9.055-4
				c4.404-1.572,7.398-3.279,8.988-4.309c1.365-0.883,2.072-2.492,1.801-4.1c-0.014-0.088-0.031-0.184-0.047-0.279
				c1.113,2.24,2.779,4.139,4.811,5.539V104.689z M129.049,108.373c-1.686,1.604-4.33,1.604-6.02,0l-1.84-1.75
				c0.311-0.582,0.48-1.242,0.48-1.934v-2.107c1.383,0.43,2.852,0.664,4.369,0.664c1.52,0,2.988-0.234,4.371-0.664l-0.002,2.107
				c0,0.691,0.17,1.352,0.482,1.934L129.049,108.373z M126.039,99.285c-5.482,0-10.062-4.107-10.652-9.553
				c-0.031-0.291-0.127-0.572-0.279-0.822c-1.246-2.027-1.904-4.344-1.904-6.695c0-7.079,5.758-12.837,12.836-12.837
				c7.08,0,12.838,5.758,12.838,12.837c0,1.363-0.223,2.715-0.65,4.006c-5.625-5.713-15.518-7.953-15.994-8.058
				c-0.586-0.129-1.199,0.015-1.666,0.39c-0.469,0.376-0.74,0.943-0.74,1.543c0,0.013-0.09,1.388-1.537,2.833
				c-0.773,0.773-0.773,2.029,0,2.801c0.773,0.773,2.027,0.773,2.801,0c1.113-1.113,1.77-2.244,2.152-3.199
				c3.334,0.99,10.248,3.492,13.352,7.879C135.715,95.514,131.293,99.285,126.039,99.285z"/>
		</g>
	</g>
</g>
</svg>
