<?xml version="1.0" encoding="utf-8"?>
<!-- Generator: Adobe Illustrator 16.0.0, SVG Export Plug-In . SVG Version: 6.00 Build 0)  -->
<!DOCTYPE svg PUBLIC "-//W3C//DTD SVG 1.1//EN" "http://www.w3.org/Graphics/SVG/1.1/DTD/svg11.dtd">
<svg version="1.1" id="Layer_1" xmlns="http://www.w3.org/2000/svg" xmlns:xlink="http://www.w3.org/1999/xlink" x="0px" y="0px"
	 width="153.53px" height="46.597px" viewBox="0 0 153.53 46.597" enable-background="new 0 0 153.53 46.597" xml:space="preserve">
<g>
	<path fill="#FFFFFF" d="M80.459,25.226l1.721-9.406h3.585l-3.184,15h-3.75l-2.009-8.551l-1.968,8.551h-3.74l-3.194-15h3.596
		l1.721,9.406l2.061-9.406h3.07L80.459,25.226z"/>
	<path fill="#FFFFFF" d="M99.097,18.612h-4.502V30.82h-3.616V18.612h-4.42V15.82h12.538V18.612z"/>
	<path fill="#FFFFFF" d="M105.371,15.82l3.349,10.437l3.338-10.437h4.76v15h-3.627v-3.503l0.351-7.17l-3.626,10.673h-2.391
		l-3.637-10.684l0.351,7.181v3.503h-3.617v-15H105.371z"/>
	<path fill="#FFFFFF" d="M124.368,30.82v-15h5.389c1.93,0,3.398,0.354,4.404,1.061s1.51,1.734,1.51,3.081
		c0,0.776-0.179,1.439-0.536,1.988c-0.357,0.55-0.883,0.955-1.576,1.216c0.783,0.206,1.384,0.591,1.803,1.154
		c0.419,0.563,0.629,1.25,0.629,2.061c0,1.47-0.466,2.574-1.396,3.312s-2.31,1.114-4.137,1.128H124.368z M127.985,22.073h1.885
		c0.79-0.007,1.354-0.151,1.689-0.434c0.337-0.282,0.505-0.699,0.505-1.25c0-0.634-0.182-1.09-0.546-1.369
		c-0.364-0.279-0.951-0.418-1.762-0.418h-1.771V22.073z M127.985,24.443v3.596h2.369c0.652,0,1.154-0.149,1.504-0.448
		c0.351-0.299,0.525-0.719,0.525-1.262c0-1.25-0.621-1.878-1.864-1.885H127.985z"/>
	<path fill="#FFFFFF" d="M150.518,30.82h-3.596v-6.264h-5.326v6.264h-3.617v-15h3.617v5.955h5.326V15.82h3.596V30.82z"/>
</g>
<g>
	<path fill="#FFFFFF" d="M40.131,22.707c-1.318-1.527-3.996-4.458-5.942-5.617c-4.653-2.769-9.821-2.601-14.506,0.081
		c-8.026,4.656-17.688,21.125-17.871,22.8c-0.027,0.256,0.209,0.467,0.467,0.467c0.041,0,4.941,0,4.988,0
		c0.149,0,0.276-0.075,0.362-0.183c0.062-0.081,9.822-15.391,14.296-18.057C27.804,17.303,35.76,18.016,40.131,22.707z"/>
	<path fill="#FFFFFF" d="M48.023,36.157c-0.046-0.21-2.89-6.36-7.125-12.539C36.75,18.125,28.167,17,21.925,22.199
		c2.967-1.767,5.858-2.198,8.946-0.644c2.216,1.115,4.015,2.75,5.624,4.606c2.587,2.985,4.598,6.342,6.244,9.919
		c0.224,0.486,0.477,0.664,1.01,0.645c1.191-0.042,2.387-0.043,3.579,0c0.084,0.002,0.159,0.001,0.228-0.003
		c-0.001,0-0.002-0.001-0.003-0.001c0.043-0.002,0.082-0.007,0.119-0.014c0.012-0.002,0.024-0.003,0.036-0.007
		c0.024-0.005,0.044-0.013,0.066-0.022c0.149-0.071,0.252-0.217,0.262-0.393C48.035,36.274,48.035,36.227,48.023,36.157z"/>
	<path fill="#CAC9C9" d="M40.305,18.477c0,0,0.559,4.836,0.593,5.142l0,0c4.236,6.179,7.079,12.329,7.125,12.539l0,0
		C47.852,34.337,40.305,18.477,40.305,18.477z"/>
	<path fill="#FFFFFF" d="M44.649,2.898c0,0-5.553-0.004-5.567-0.004c-0.258,0-0.466,0.208-0.466,0.467
		c0,0.018,0.009,0.239,0.019,0.34c0.361,3.413,1.126,10.074,1.67,14.775c0,0,7.546,15.86,7.718,17.681
		C47.852,34.337,44.649,2.898,44.649,2.898z"/>
	<path fill="#CAC9C9" d="M44.649,2.898l0.614,6.03c0,0-0.001-0.289,0.004-0.315c0.003-0.024,0.006-0.045,0.01-0.065
		c0.049-0.151,0.171-0.264,0.325-0.302c0.021-0.004,0.178-0.024,0.324-0.024c0.372,0,1.271,0.003,1.271,0.003L44.649,2.898z"/>
	<path fill="#FFFFFF" d="M58.688,2.898c-0.008,0-8.212,0.003-14.039,0l2.549,5.327h11.556l0.021-0.208c0,0,0.375-4.566,0.375-4.596
		C59.149,3.089,59.01,2.898,58.688,2.898z"/>
	<path fill="#FFFFFF" d="M58.754,8.226l-6.043,3.372c-0.583,7.796-2.127,28.447-2.137,28.585c0,0.001,0,0.004,0,0.005
		c0,0.189,0.115,0.349,0.275,0.422c0.059,0.027,0.123,0.043,0.191,0.043c0.021,0,4.569,0.109,4.589,0.109
		c0.258,0,0.467-0.209,0.467-0.467c0,0,0-0.001,0-0.001C56.171,39.715,57.939,18.194,58.754,8.226z"/>
	<path fill="#CAC9C9" d="M58.754,8.226h-6.129c0.178,0.066,0.305,0.236,0.305,0.438c0,0.001-0.22,2.934-0.22,2.934L58.754,8.226z"/>
</g>
</svg>
